<svg width="1em" height="1em" xmlns="http://www.w3.org/2000/svg" class="larkui-icon icon-svg index-module_triggerIcon_qjqIF index-module_size_wVASz" style="width: 12px; min-width: 12px; height: 12px;"><path d="M1.5 9a1.5 1.5 0 110 3 1.5 1.5 0 010-3zM6 9a1.5 1.5 0 110 3 1.5 1.5 0 010-3zm4.5 0a1.5 1.5 0 110 3 1.5 1.5 0 010-3zm-9-4.5a1.5 1.5 0 110 3 1.5 1.5 0 010-3zm4.5 0a1.5 1.5 0 110 3 1.5 1.5 0 010-3zm4.5 0a1.5 1.5 0 110 3 1.5 1.5 0 010-3zM1.5 0a1.5 1.5 0 110 3 1.5 1.5 0 010-3zM6 0a1.5 1.5 0 110 3 1.5 1.5 0 010-3zm4.5 0a1.5 1.5 0 110 3 1.5 1.5 0 010-3z" fill="currentColor" fill-rule="evenodd"></path></svg>